<svg width="39" height="39" viewBox="0 0 55 52" fill="none" xmlns="http://www.w3.org/2000/svg">
<path d="M28.1371 7.93832C27.9665 7.77513 27.7395 7.68405 27.5034 7.68405C27.2674 7.68405 27.0404 7.77513 26.8698 7.93832L5.77504 28.09C5.68546 28.1757 5.61418 28.2787 5.56554 28.3927C5.51689 28.5068 5.49188 28.6295 5.49202 28.7535L5.48859 47.6666C5.48859 48.639 5.87489 49.5716 6.56253 50.2593C7.25016 50.9469 8.18279 51.3332 9.15524 51.3332H20.1667C20.6529 51.3332 21.1192 51.1401 21.463 50.7962C21.8068 50.4524 22 49.9861 22 49.4999V33.9166C22 33.6735 22.0966 33.4403 22.2685 33.2684C22.4404 33.0965 22.6736 32.9999 22.9167 32.9999H32.0833C32.3264 32.9999 32.5596 33.0965 32.7315 33.2684C32.9034 33.4403 33 33.6735 33 33.9166V49.4999C33 49.9861 33.1931 50.4524 33.5369 50.7962C33.8808 51.1401 34.3471 51.3332 34.8333 51.3332H45.8402C46.8126 51.3332 47.7452 50.9469 48.4329 50.2593C49.1205 49.5716 49.5068 48.639 49.5068 47.6666V28.7535C49.507 28.6295 49.4819 28.5068 49.4333 28.3927C49.3847 28.2787 49.3134 28.1757 49.2238 28.09L28.1371 7.93832Z" fill="white"/>
<path d="M54.4167 24.3088L45.8459 16.1092V3.66666C45.8459 3.18043 45.6527 2.71411 45.3089 2.3703C44.9651 2.02648 44.4988 1.83333 44.0125 1.83333H38.5126C38.0263 1.83333 37.56 2.02648 37.2162 2.3703C36.8724 2.71411 36.6792 3.18043 36.6792 3.66666V7.33332L30.0426 0.987706C29.4215 0.359791 28.498 0 27.5 0C26.5054 0 25.5841 0.359791 24.9631 0.988852L0.591292 24.3065C-0.121415 24.994 -0.210789 26.1249 0.437751 26.8697C0.600609 27.0577 0.800018 27.2106 1.02384 27.3191C1.24767 27.4276 1.49122 27.4894 1.73969 27.5007C1.98816 27.5121 2.23634 27.4728 2.46913 27.3852C2.70192 27.2976 2.91445 27.1635 3.09379 26.9912L26.8698 4.27166C27.0404 4.10847 27.2673 4.01739 27.5034 4.01739C27.7395 4.01739 27.9665 4.10847 28.1371 4.27166L51.9153 26.9912C52.2656 27.3271 52.7348 27.5104 53.22 27.5009C53.7052 27.4915 54.1668 27.2901 54.5038 26.9408C55.2073 26.212 55.1489 25.0089 54.4167 24.3088Z" fill="white"/>
</svg>
